<svg xmlns="http://www.w3.org/2000/svg" width="42" height="42"><g fill="none" fill-rule="evenodd"><path fill="#007CB5" d="M0 0h42v42H0z"/><path fill="#FFF" d="M29.747 29.75h.003v-6.42c0-3.14-.675-5.558-4.346-5.558-1.765 0-2.949.968-3.432 1.886h-.051v-1.592h-3.48v11.683h3.623v-5.785c0-1.523.29-2.996 2.175-2.996 1.86 0 1.887 1.738 1.887 3.094v5.688h3.62zM12.539 29.75h3.628V18.067h-3.628zm1.812-17.5c-1.16 0-2.101.941-2.101 2.101 0 1.16.941 2.122 2.101 2.122 1.16 0 2.102-.961 2.102-2.122 0-1.16-.943-2.101-2.103-2.101"/></g></svg>
