<svg xmlns="http://www.w3.org/2000/svg" width="251" height="60"><g fill="none"><path fill="#fff" d="M0 0h251v60H0z"/><path fill="#FE5F15" d="M206.1 12.12h2.13l-16.53 35.4h-2.2z"/><path fill="#282428" d="M43.57 19h2.26l1.48 18.6h-1.8L44.3 21.7l-6.44 16H36.4l-6.46-15.98-1.22 15.87H27L28.48 19h2.3l6.38 16.22L43.56 19zm7.48 10.3h7.5c-.1-1.26-.43-2.3-1.02-3.08-.6-.8-1.45-1.2-2.55-1.2-1.1 0-1.97.37-2.64 1.12-.67.75-1.1 1.8-1.3 3.15zm8.15-3.8c.47.63.82 1.37 1.04 2.2.23.85.34 1.74.34 2.7v.4h-9.62c.04 1.73.43 3.07 1.18 4.02.75.95 1.83 1.43 3.23 1.43.94 0 1.8-.2 2.6-.57.8-.37 1.56-.88 2.28-1.5l.3 1.74c-.68.6-1.47 1.06-2.36 1.42-.9.36-1.87.54-2.94.54-.92 0-1.76-.15-2.52-.45-.76-.3-1.4-.76-1.96-1.36-.54-.6-.97-1.36-1.28-2.27-.32-.9-.47-1.95-.47-3.14 0-1.1.15-2.1.45-3 .3-.88.72-1.64 1.26-2.26a5.47 5.47 0 0 1 1.88-1.44c.73-.33 1.5-.5 2.37-.5.93 0 1.75.2 2.45.55.7.37 1.3.87 1.75 1.5zm4.2 3.8h7.52c-.1-1.26-.44-2.3-1.03-3.08-.6-.8-1.45-1.2-2.56-1.2-1.1 0-1.97.37-2.64 1.12-.67.75-1.1 1.8-1.3 3.15zm8.17-3.8c.46.63.8 1.37 1.03 2.2.23.85.34 1.74.34 2.7v.4h-9.62c.04 1.73.43 3.07 1.18 4.02.75.95 1.83 1.43 3.23 1.43.94 0 1.8-.2 2.6-.57.8-.37 1.56-.88 2.28-1.5l.3 1.74c-.67.6-1.46 1.06-2.34 1.42-.9.36-1.87.54-2.94.54-.92 0-1.76-.15-2.52-.45-.76-.3-1.4-.76-1.96-1.36-.54-.6-.97-1.36-1.28-2.27-.3-.9-.47-1.95-.47-3.14 0-1.1.14-2.1.44-3 .3-.88.72-1.64 1.26-2.26.54-.63 1.17-1.1 1.9-1.44.7-.33 1.5-.5 2.36-.5.93 0 1.75.2 2.45.55.7.37 1.3.87 1.77 1.5zm8.37 10.58c.24-.02.44-.06.6-.1l.3 1.6c-.23.07-.5.12-.83.17-.32.05-.7.07-1.1.07-1.1 0-1.97-.24-2.63-.74-.67-.5-1-1.38-1-2.65V25.4h-2.13v-1.64h2.13V20.6l1.93-.32v3.48h3.2l.25 1.64H77.2v8.7c0 .7.16 1.22.47 1.55.3.32.84.48 1.58.48.2 0 .44-.02.7-.05zm27-17.08h2.26l1.48 18.6h-1.8l-1.22-15.88-6.44 15.98h-1.45L93.3 21.72 92.1 37.6h-1.73L91.85 19h2.3l6.37 16.22 6.4-16.22zm14.18 15.17v-3.92c-1.36.14-2.5.32-3.38.56-.9.24-1.6.5-2.13.82-.5.32-.88.67-1.1 1.07-.2.4-.3.83-.3 1.3 0 .73.2 1.3.67 1.68.46.38 1.05.56 1.8.56.73 0 1.5-.18 2.26-.56.78-.4 1.5-.9 2.2-1.5zm-2.72-10.7c3.1 0 4.65 1.42 4.65 4.27v9.85h-1.5l-.32-1.85c-.64.6-1.36 1.1-2.17 1.52-.8.4-1.7.6-2.7.6-1.2 0-2.18-.3-2.95-.95-.76-.65-1.14-1.58-1.14-2.8 0-.83.17-1.54.5-2.14.35-.6.88-1.12 1.6-1.55.7-.43 1.63-.78 2.75-1.06 1.13-.27 2.46-.48 4.02-.64v-.9c0-.94-.26-1.62-.78-2.04-.5-.43-1.2-.64-2.08-.64-.8 0-1.62.1-2.42.34-.8.22-1.57.52-2.33.9l-.25-1.73a18.8 18.8 0 0 1 2.44-.87c.8-.22 1.7-.33 2.7-.33zm15.2 17.2c.83-.47 1.25-1.05 1.25-1.73 0-.55-.25-.98-.74-1.3-.5-.33-1.35-.6-2.57-.84l-1.34-.23c-.36-.08-.66-.14-.9-.2-.27-.04-.52-.1-.77-.15-1.87.85-2.8 1.83-2.8 2.92 0 .72.4 1.28 1.24 1.67.82.4 1.92.6 3.28.6 1.4 0 2.5-.25 3.35-.72zm-6.9-12.44c0 .9.3 1.66.87 2.28.58.64 1.38.95 2.38.95s1.8-.3 2.4-.94c.57-.6.86-1.4.86-2.33 0-.46-.07-.9-.23-1.3-.17-.4-.4-.74-.7-1.03-.28-.3-.63-.53-1.03-.7-.4-.16-.86-.24-1.34-.24-1 0-1.78.32-2.35.95-.57.63-.86 1.43-.86 2.38zm8.8 8.15c.8.5 1.2 1.3 1.2 2.32a3.1 3.1 0 0 1-.53 1.77c-.35.52-.83.95-1.43 1.3-.6.35-1.3.62-2.1.8-.8.2-1.63.28-2.52.28-.9 0-1.74-.07-2.5-.22-.78-.14-1.44-.37-2-.67-.57-.3-1.02-.68-1.34-1.12-.32-.45-.48-.98-.48-1.58 0-1.37 1.05-2.6 3.16-3.7-.7-.38-1.03-.85-1.03-1.42 0-.37.12-.7.35-1 .24-.3.58-.57 1.03-.84-.75-.4-1.37-.94-1.83-1.64-.47-.7-.7-1.53-.7-2.5 0-.7.14-1.36.42-1.94.27-.6.65-1.1 1.1-1.5a5.1 5.1 0 0 1 1.64-.93c.6-.23 1.26-.33 1.94-.33 1.4 0 2.55.4 3.5 1.17l3.46-1.1.32 1.9-2.76.28c.5.74.74 1.56.74 2.45 0 .75-.14 1.4-.42 1.98-.28.57-.66 1.07-1.14 1.47-.48.4-1.03.73-1.65.94-.63.22-1.28.32-1.96.32-.22 0-.42 0-.62-.03-.2-.02-.4-.05-.58-.08-.6.33-.9.66-.9 1 0 .13.04.25.13.36.08.1.24.2.46.3.23.08.54.16.94.25.4.1.92.2 1.56.3l1.03.2c1.53.3 2.7.68 3.5 1.2zm3.62-7.1h7.52c-.1-1.24-.45-2.27-1.04-3.06-.6-.8-1.44-1.2-2.55-1.2-1.08 0-1.96.37-2.63 1.12-.67.75-1.1 1.8-1.3 3.15zm8.16-3.78c.47.63.8 1.37 1.04 2.2.22.85.33 1.74.33 2.7v.4h-9.62c.04 1.73.44 3.07 1.2 4.02.74.95 1.8 1.43 3.22 1.43.93 0 1.8-.2 2.6-.57.8-.37 1.56-.88 2.28-1.5l.3 1.74c-.7.6-1.47 1.06-2.36 1.42-.9.36-1.87.54-2.94.54-.9 0-1.75-.15-2.5-.45a5.13 5.13 0 0 1-1.97-1.36c-.55-.6-.98-1.36-1.3-2.27-.3-.9-.46-1.95-.46-3.14 0-1.1.16-2.1.46-3 .3-.88.72-1.64 1.25-2.26.55-.63 1.18-1.1 1.9-1.44.72-.33 1.5-.5 2.37-.5.94 0 1.75.2 2.46.55.7.37 1.28.87 1.75 1.5zm9.7-2.03c1.38 0 2.42.37 3.1 1.1.68.75 1.02 1.8 1.02 3.14v9.9h-1.93v-9.54c0-.9-.2-1.6-.63-2.1-.4-.5-1.06-.77-1.94-.77-.74 0-1.48.2-2.22.64-.74.42-1.5 1-2.25 1.75v10h-1.93V23.75h1.5l.3 2.05c.77-.68 1.55-1.24 2.36-1.68.8-.43 1.68-.65 2.62-.65zm11.78 12.6c.25 0 .45-.05.6-.1l.3 1.62c-.22.05-.5.1-.82.15-.33.05-.7.07-1.1.07-1.1 0-1.98-.24-2.65-.74-.67-.5-1-1.38-1-2.65V25.4h-2.13v-1.64h2.13V20.6l1.93-.32v3.48h3.2l.25 1.64h-3.45v8.7c0 .7.16 1.22.47 1.55.3.32.84.48 1.58.48.2 0 .44-.02.68-.05zm10.84-1.38c.73-1.04 1.1-2.37 1.1-4 0-.8-.1-1.55-.3-2.23-.17-.7-.45-1.28-.82-1.77-.37-.5-.82-.9-1.34-1.17-.53-.28-1.14-.43-1.85-.43-.7 0-1.3.14-1.82.4-.52.3-.97.67-1.33 1.17-.36.5-.63 1.1-.82 1.77-.18.68-.27 1.43-.27 2.25 0 .8.1 1.52.27 2.2.2.67.46 1.25.82 1.75.36.5.8.9 1.33 1.17.53.28 1.13.43 1.8.43 1.42 0 2.5-.52 3.22-1.56zm1.3-9.35c.57.62 1 1.37 1.33 2.27.32.9.48 1.92.48 3.07 0 1.14-.15 2.16-.47 3.04-.32.9-.77 1.64-1.33 2.26-.57.6-1.24 1.08-2 1.4-.78.32-1.6.48-2.48.48-.87 0-1.7-.16-2.45-.48-.76-.32-1.42-.8-1.98-1.4-.56-.62-1-1.37-1.3-2.26-.32-.88-.48-1.9-.48-3.05 0-1.16.17-2.18.5-3.08.3-.9.75-1.65 1.3-2.27.56-.6 1.2-1.08 1.96-1.4.75-.32 1.57-.48 2.44-.48.9 0 1.73.16 2.5.48.77.32 1.44.8 2 1.4zm7.25-1.92l.23 2.98h-.4l-.18-2.28-.92 2.3h-.33l-.9-2.3-.2 2.3h-.38l.22-3h.48l.94 2.45.95-2.44h.48zm-5.8 0h2.24l.05.37h-.94v2.6h-.4v-2.6h-.94v-.37z"/><path fill="#2F2B2F" d="M219.02 24.78c1.43 0 2.53.35 3.32 1.04.8.68 1.2 1.65 1.2 2.9 0 1.32-.4 2.35-1.2 3.08-.8.73-1.9 1.1-3.32 1.1h-2V36h-2.93V24.78H219zm-.15 5.78c.6 0 1.06-.15 1.4-.45.3-.3.47-.72.47-1.28 0-.55-.16-.97-.48-1.26-.33-.3-.8-.44-1.4-.44h-1.84v3.44h1.85zm6.1-5.78h2.93v8.72h4.75V36h-7.68V24.78z"/></g></svg>
