<svg xmlns="http://www.w3.org/2000/svg" width="42" height="42"><g fill="none" fill-rule="evenodd"><path fill="#1EA1F2" d="M0 0h42v42H0z"/><path fill="#FFF" d="M29.472 15.693c-.388.173-.792.31-1.208.407.458-.433.8-.976.995-1.581a.198.198 0 00-.289-.23 6.973 6.973 0 01-1.845.762.487.487 0 01-.438-.109A3.77 3.77 0 0024.19 14c-.398 0-.8.061-1.195.184a3.658 3.658 0 00-2.464 2.634 4.05 4.05 0 00-.09 1.39.138.138 0 01-.033.105.143.143 0 01-.106.047h-.012a9.902 9.902 0 01-6.798-3.633.198.198 0 00-.324.026 3.77 3.77 0 00-.511 1.897c0 1.022.411 1.986 1.124 2.688-.3-.07-.59-.183-.86-.332a.197.197 0 00-.293.17 3.778 3.778 0 002.204 3.48h-.081c-.21 0-.426-.02-.636-.06a.197.197 0 00-.224.254 3.784 3.784 0 002.986 2.572 6.965 6.965 0 01-3.9 1.184h-.435a.29.29 0 00-.282.217.302.302 0 00.143.331 10.362 10.362 0 005.204 1.403c1.6 0 3.096-.317 4.447-.944a9.825 9.825 0 003.253-2.437 10.683 10.683 0 001.993-3.337c.442-1.184.676-2.446.676-3.652v-.057c0-.194.089-.376.24-.5a7.363 7.363 0 001.5-1.646.197.197 0 00-.244-.29z"/></g></svg>
