<svg xmlns="http://www.w3.org/2000/svg" xmlns:xlink="http://www.w3.org/1999/xlink" width="42" height="42" viewBox="0 0 42 42">
    <defs>
        <path id="js8rqjfiba" d="M0 0L17.5 0 17.5 14.556 0 14.556z"/>
    </defs>
    <g fill="none" fill-rule="evenodd">
        <path fill="#1EA1F2" d="M0 0H42V42H0z"/>
        <g transform="translate(12.25 14)">
            <mask id="tky8v64v3b" fill="#fff">
                <use xlink:href="#js8rqjfiba"/>
            </mask>
            <path fill="#FFF" d="M17.222 1.693c-.388.173-.792.31-1.208.407.458-.433.8-.976.995-1.581.054-.173-.134-.322-.289-.23-.575.341-1.197.598-1.845.762-.038.01-.076.015-.115.015-.118 0-.233-.044-.323-.124C13.747.334 12.862 0 11.94 0c-.398 0-.8.061-1.195.184-1.224.38-2.168 1.39-2.464 2.634-.111.467-.141.935-.09 1.39.006.052-.019.088-.033.105-.028.03-.065.047-.106.047H8.04C5.363 4.11 2.95 2.82 1.242.727 1.154.62.988.634.918.753.584 1.326.407 1.982.407 2.65c0 1.022.411 1.986 1.124 2.688-.3-.07-.59-.183-.86-.332-.13-.074-.291.02-.293.17-.018 1.519.87 2.87 2.204 3.48h-.081c-.21 0-.426-.02-.636-.06-.147-.028-.27.111-.224.254.433 1.35 1.596 2.346 2.986 2.572-1.155.775-2.5 1.184-3.9 1.184H.292c-.133 0-.247.088-.282.217-.033.129.029.264.143.331 1.578.918 3.378 1.403 5.204 1.403 1.6 0 3.096-.317 4.447-.944 1.239-.574 2.333-1.394 3.253-2.437.858-.973 1.528-2.095 1.993-3.337.442-1.184.676-2.446.676-3.652V4.13c0-.194.089-.376.24-.5.581-.47 1.086-1.024 1.5-1.646.11-.165-.063-.37-.244-.29z" mask="url(#tky8v64v3b)"/>
        </g>
    </g>
</svg>
