<?xml version="1.0" standalone="no"?>
<!DOCTYPE svg PUBLIC "-//W3C//DTD SVG 20010904//EN"
 "http://www.w3.org/TR/2001/REC-SVG-20010904/DTD/svg10.dtd">
<svg version="1.0" xmlns="http://www.w3.org/2000/svg"
 width="180.000000pt" height="180.000000pt" viewBox="0 0 180.000000 180.000000"
 preserveAspectRatio="xMidYMid meet">
<metadata>
Created by potrace 1.11, written by Peter Selinger 2001-2013
</metadata>
<g transform="translate(0.000000,180.000000) scale(0.100000,-0.100000)"
fill="#000000" stroke="none">
<path d="M518 1572 l-377 -227 -1 -442 0 -441 92 -54 93 -54 5 435 5 436 275
167 c151 92 282 167 290 165 8 -1 138 -76 288 -167 l272 -165 0 -432 c0 -340
3 -433 13 -432 6 0 50 24 97 52 l85 52 0 438 0 438 -379 230 c-209 126 -380
229 -380 229 -1 0 -171 -103 -378 -228z"/>
<path d="M1000 751 l0 -509 -51 -32 c-28 -17 -54 -30 -57 -28 -4 2 -26 14 -49
28 l-43 25 0 508 c0 364 -3 507 -11 507 -8 0 -210 -119 -247 -145 -2 -2 -3
-200 -3 -441 l0 -439 173 -108 c100 -62 180 -105 190 -103 10 2 94 51 188 108
l170 103 -3 440 -2 440 -127 77 -128 78 0 -509z"/>
</g>
</svg>
